<?xml version="1.0" encoding="iso-8859-1"?>
<!-- Generator: Adobe Illustrator 19.0.0, SVG Export Plug-In . SVG Version: 6.00 Build 0)  -->
<svg version="1.1" id="Layer_1" xmlns="http://www.w3.org/2000/svg" xmlns:xlink="http://www.w3.org/1999/xlink" x="0px" y="0px"
	 viewBox="0 0 504.938 504.938" style="enable-background:new 0 0 504.938 504.938;" xml:space="preserve">
<g transform="translate(1 1)">
	<g>
		<path style="fill:#E4F4F9;" d="M201.152,364.462l-62.676-62.676c-3.531-3.531-3.531-8.828,0-12.359l143.89-143.89l75.034,75.034
			l-143.89,143.89C209.979,367.11,204.683,367.11,201.152,364.462"/>
		<polygon style="fill:#E4F4F9;" points="357.4,220.572 282.366,145.538 338.862,89.041 413.897,164.076 		"/>
	</g>
	<g>
		<path style="fill:#BDC3C7;" d="M7.828,503.938c-2.648,0-4.414-0.883-6.179-2.648c-3.531-3.531-3.531-8.828,0-12.359l99.752-99.752
			c3.531-3.531,8.828-3.531,12.359,0s3.531,8.828,0,12.359L14.007,501.29C12.241,503.055,10.476,503.938,7.828,503.938z"/>
		<polygon style="fill:#BDC3C7;" points="413.897,114.641 388.297,89.041 457.152,21.069 481.869,45.786 		"/>
	</g>
	<polygon style="fill:#90BAE1;" points="332.683,195.855 307.083,170.255 363.579,114.641 388.297,139.359 	"/>
	<path style="fill:#ECF0F1;" d="M495.11,66.972c-2.648,0-4.414-0.883-6.179-2.648l-50.317-50.317c-3.531-3.531-3.531-8.828,0-12.359
		c3.531-3.531,8.828-3.531,12.359,0l50.317,50.317c3.531,3.531,3.531,8.828,0,12.359C499.524,66.09,496.876,66.972,495.11,66.972z"
		/>
	<path style="fill:#DEEDF1;" d="M422.724,173.786l-93.572-93.572c-1.766-1.766-1.766-4.414,0-6.179l18.538-18.538
		c1.766-1.766,4.414-1.766,6.179-0.883l93.572,93.572c1.766,1.766,1.766,4.414,0,6.179l-18.538,18.538
		C427.138,175.552,424.49,175.552,422.724,173.786"/>
	<polygon style="fill:#25C3AB;" points="157.897,370.641 132.297,345.041 157.897,320.324 182.614,345.041 	"/>
	<path style="fill:#F0C419;" d="M109.345,397.124l-3.531-3.531c-6.179-6.179-6.179-15.89,0-22.069l26.483-26.483l24.717,24.717
		l-26.483,26.483C125.234,402.421,115.524,402.421,109.345,397.124"/>
	<polygon style="fill:#687492;" points="347.69,229.4 357.4,220.572 282.366,145.538 273.538,155.248 	"/>
	<g>
		<path style="fill:#90BAE1;" d="M245.29,182.614l30.897,30.897c1.766,1.766,4.414,2.648,6.179,2.648
			c2.648,0,4.414-0.883,6.179-2.648c3.531-3.531,3.531-8.828,0-12.359l-30.897-30.897L245.29,182.614z"/>
		<path style="fill:#90BAE1;" d="M245.29,245.29c1.766,1.766,4.414,2.648,6.179,2.648c2.648,0,4.414-0.883,6.179-2.648
			c3.531-3.531,3.531-8.828,0-12.359l-30.897-30.897l-12.359,12.359L245.29,245.29z"/>
		<path style="fill:#90BAE1;" d="M213.51,277.069c1.766,1.766,4.414,2.648,6.179,2.648c1.766,0,4.414-0.883,6.179-2.648
			c3.531-3.531,3.531-8.828,0-12.359l-30.897-30.897l-12.359,12.359L213.51,277.069z"/>
	</g>
</g>
<g>
</g>
<g>
</g>
<g>
</g>
<g>
</g>
<g>
</g>
<g>
</g>
<g>
</g>
<g>
</g>
<g>
</g>
<g>
</g>
<g>
</g>
<g>
</g>
<g>
</g>
<g>
</g>
<g>
</g>
</svg>
