<svg width="457" height="456" viewBox="0 0 457 456" fill="none" xmlns="http://www.w3.org/2000/svg">
<g id="Group">
<g id="huosai">
<path id="Vector" d="M366.814 115.641L341.214 90.0412L410.069 22.0692L434.786 46.7862L366.814 115.641Z" fill="#BDC3C7"/>
<path id="Vector_2" d="M320.814 161.641L295.214 136.041L364.069 68.0692L388.786 92.7862L320.814 161.641Z" fill="#BDC3C7"/>
<path id="Vector_3" d="M285.6 196.855L260 171.255L316.496 115.641L341.214 140.359L285.6 196.855Z" fill="#BDC3C7"/>
<path id="Vector_4" d="M448.027 67.9723C445.379 67.9723 443.613 67.0892 441.848 65.3242L391.531 15.0072C388 11.4762 388 6.17925 391.531 2.64825C395.062 -0.88275 400.359 -0.88275 403.89 2.64825L454.207 52.9653C457.738 56.4963 457.738 61.7933 454.207 65.3242C452.441 67.0902 449.793 67.9723 448.027 67.9723Z" fill="#ECF0F1"/>
</g>
<g id="tong">
<path id="Vector_5" d="M202.151 316.462L139.475 253.786C135.944 250.255 135.944 244.958 139.475 241.427L283.365 97.5372L358.399 172.571L214.509 316.461C210.978 319.11 205.682 319.11 202.151 316.462Z" fill="#E4F4F9"/>
<path id="Vector_6" d="M358.399 172.572L283.365 97.5383L339.861 41.0413L414.896 116.076L358.399 172.572Z" fill="#E4F4F9"/>
<path id="Vector_7" d="M246.289 134.614L277.186 165.511C278.952 167.277 281.6 168.159 283.365 168.159C286.013 168.159 287.779 167.276 289.544 165.511C293.075 161.98 293.075 156.683 289.544 153.152L258.647 122.255L246.289 134.614Z" fill="#90BAE1"/>
<path id="Vector_8" d="M246.289 197.29C248.055 199.056 250.703 199.938 252.468 199.938C255.116 199.938 256.882 199.055 258.647 197.29C262.178 193.759 262.178 188.462 258.647 184.931L227.75 154.034L215.391 166.393L246.289 197.29Z" fill="#90BAE1"/>
<path id="Vector_9" d="M214.509 229.069C216.275 230.835 218.923 231.717 220.688 231.717C222.454 231.717 225.102 230.834 226.867 229.069C230.398 225.538 230.398 220.241 226.867 216.71L195.97 185.813L183.611 198.172L214.509 229.069Z" fill="#90BAE1"/>
<path id="Vector_10" d="M110.344 349.124L106.813 345.593C100.634 339.414 100.634 329.703 106.813 323.524L133.296 297.041L158.013 321.758L131.53 348.241C126.233 354.421 116.523 354.421 110.344 349.124Z" fill="#F0C419"/>
<path id="Vector_11" d="M158.896 322.641L133.296 297.041L158.896 272.324L183.613 297.041L158.896 322.641Z" fill="#25C3AB"/>
<path id="Vector_12" d="M8.82725 455.938C6.17925 455.938 4.41325 455.055 2.64825 453.29C-0.88275 449.759 -0.88275 444.462 2.64825 440.931L102.4 341.179C105.931 337.648 111.228 337.648 114.759 341.179C118.29 344.71 118.29 350.007 114.759 353.538L15.0062 453.29C13.2402 455.055 11.4752 455.938 8.82725 455.938Z" fill="#BDC3C7"/>
<path id="Vector_13" d="M423.723 125.786L330.151 32.2142C328.385 30.4482 328.385 27.8002 330.151 26.0352L348.689 7.49725C350.455 5.73125 353.103 5.73124 354.868 6.61424L448.44 100.186C450.206 101.952 450.206 104.6 448.44 106.365L429.902 124.903C428.137 127.552 425.489 127.552 423.723 125.786Z" fill="#DEEDF1"/>
</g>
</g>
</svg>
