<svg width="1290" height="976" viewBox="0 0 1290 976" fill="none" xmlns="http://www.w3.org/2000/svg">
<path d="M646.814 341.641L621.214 316.041L690.069 248.069L714.786 272.786L646.814 341.641Z" fill="#BDC3C7"/>
<path d="M600.814 387.641L575.214 362.041L644.069 294.069L668.786 318.786L600.814 387.641Z" fill="#BDC3C7"/>
<path d="M565.6 422.855L540 397.255L596.496 341.641L621.214 366.359L565.6 422.855Z" fill="#BDC3C7"/>
<path d="M728.027 293.972C725.379 293.972 723.613 293.089 721.848 291.324L671.531 241.007C668 237.476 668 232.179 671.531 228.648C675.062 225.117 680.359 225.117 683.89 228.648L734.207 278.965C737.738 282.496 737.738 287.793 734.207 291.324C732.441 293.09 729.793 293.972 728.027 293.972Z" fill="#ECF0F1"/>
<path d="M482.151 542.462L419.475 479.786C415.944 476.255 415.944 470.958 419.475 467.427L563.365 323.537L638.399 398.571L494.509 542.461C490.978 545.11 485.682 545.11 482.151 542.462Z" fill="#E4F4F9"/>
<path d="M638.399 398.572L563.365 323.538L619.861 267.041L694.896 342.076L638.399 398.572Z" fill="#E4F4F9"/>
<path d="M526.289 360.614L557.186 391.511C558.952 393.277 561.6 394.159 563.365 394.159C566.013 394.159 567.779 393.276 569.544 391.511C573.075 387.98 573.075 382.683 569.544 379.152L538.647 348.255L526.289 360.614Z" fill="#90BAE1"/>
<path d="M526.289 423.29C528.055 425.056 530.703 425.938 532.468 425.938C535.116 425.938 536.882 425.055 538.647 423.29C542.178 419.759 542.178 414.462 538.647 410.931L507.75 380.034L495.391 392.393L526.289 423.29Z" fill="#90BAE1"/>
<path d="M494.509 455.069C496.275 456.835 498.923 457.717 500.688 457.717C502.454 457.717 505.102 456.834 506.867 455.069C510.398 451.538 510.398 446.241 506.867 442.71L475.97 411.813L463.611 424.172L494.509 455.069Z" fill="#90BAE1"/>
<path d="M390.344 575.124L386.813 571.593C380.634 565.414 380.634 555.703 386.813 549.524L413.296 523.041L438.013 547.758L411.53 574.241C406.233 580.421 396.523 580.421 390.344 575.124Z" fill="#F0C419"/>
<path d="M438.896 548.641L413.296 523.041L438.896 498.324L463.613 523.041L438.896 548.641Z" fill="#25C3AB"/>
<path d="M288.827 681.938C286.179 681.938 284.413 681.055 282.648 679.29C279.117 675.759 279.117 670.462 282.648 666.931L382.4 567.179C385.931 563.648 391.228 563.648 394.759 567.179C398.29 570.71 398.29 576.007 394.759 579.538L295.006 679.29C293.24 681.055 291.475 681.938 288.827 681.938Z" fill="#BDC3C7"/>
<path d="M703.723 351.786L610.151 258.214C608.385 256.448 608.385 253.8 610.151 252.035L628.689 233.497C630.455 231.731 633.103 231.731 634.868 232.614L728.44 326.186C730.206 327.952 730.206 330.6 728.44 332.365L709.902 350.903C708.137 353.552 705.489 353.552 703.723 351.786Z" fill="#DEEDF1"/>
</svg>
